<mxfile host="app.diagrams.net" modified="2023-10-28T23:55:18.571Z" agent="Mozilla/5.0 (Windows NT 10.0; Win64; x64) AppleWebKit/537.36 (KHTML, like Gecko) Chrome/118.0.0.0 Safari/537.36" etag="vSjkuL7m1sUgSA1C0JL6" version="21.2.1" type="device">
  <diagram name="Page-1" id="2YBvvXClWsGukQMizWep">
    <mxGraphModel dx="1050" dy="534" grid="1" gridSize="10" guides="1" tooltips="1" connect="1" arrows="1" fold="1" page="1" pageScale="1" pageWidth="850" pageHeight="1100" math="0" shadow="0">
      <root>
        <mxCell id="0" />
        <mxCell id="1" parent="0" />
        <mxCell id="UNg2huOa62MbCrixfZIk-45" value="" style="edgeStyle=entityRelationEdgeStyle;rounded=0;orthogonalLoop=1;jettySize=auto;html=1;startArrow=none;endArrow=none;segment=10;curved=1;sourcePerimeterSpacing=0;targetPerimeterSpacing=0;" edge="1" parent="1" target="UNg2huOa62MbCrixfZIk-44">
          <mxGeometry relative="1" as="geometry">
            <mxPoint x="204" y="320" as="sourcePoint" />
          </mxGeometry>
        </mxCell>
        <mxCell id="UNg2huOa62MbCrixfZIk-49" style="edgeStyle=elbowEdgeStyle;rounded=0;orthogonalLoop=1;jettySize=auto;html=1;startArrow=none;endArrow=none;segment=10;sourcePerimeterSpacing=0;targetPerimeterSpacing=0;exitX=1;exitY=0.5;exitDx=0;exitDy=0;entryX=0;entryY=0.5;entryDx=0;entryDy=0;" edge="1" parent="1" target="UNg2huOa62MbCrixfZIk-47">
          <mxGeometry relative="1" as="geometry">
            <mxPoint x="204" y="320" as="sourcePoint" />
            <Array as="points">
              <mxPoint x="260" y="260" />
              <mxPoint x="240" y="270" />
            </Array>
          </mxGeometry>
        </mxCell>
        <mxCell id="UNg2huOa62MbCrixfZIk-52" style="edgeStyle=elbowEdgeStyle;rounded=0;orthogonalLoop=1;jettySize=auto;html=1;startArrow=none;endArrow=none;segment=10;sourcePerimeterSpacing=0;targetPerimeterSpacing=0;exitX=1;exitY=0.5;exitDx=0;exitDy=0;entryX=0;entryY=0.5;entryDx=0;entryDy=0;" edge="1" parent="1" target="UNg2huOa62MbCrixfZIk-50">
          <mxGeometry relative="1" as="geometry">
            <mxPoint x="204" y="320" as="sourcePoint" />
            <Array as="points">
              <mxPoint x="260" y="370" />
            </Array>
          </mxGeometry>
        </mxCell>
        <mxCell id="UNg2huOa62MbCrixfZIk-54" style="edgeStyle=orthogonalEdgeStyle;rounded=0;orthogonalLoop=1;jettySize=auto;html=1;exitX=1;exitY=0.5;exitDx=0;exitDy=0;entryX=0;entryY=0.5;entryDx=0;entryDy=0;" edge="1" parent="1" source="UNg2huOa62MbCrixfZIk-44" target="UNg2huOa62MbCrixfZIk-53">
          <mxGeometry relative="1" as="geometry" />
        </mxCell>
        <mxCell id="UNg2huOa62MbCrixfZIk-47" value="&lt;font face=&quot;Times New Roman&quot;&gt;Query publication&#39;s&lt;br&gt;keywords&lt;/font&gt;" style="whiteSpace=wrap;html=1;" vertex="1" parent="1">
          <mxGeometry x="280" y="210" width="120" height="60" as="geometry" />
        </mxCell>
        <mxCell id="UNg2huOa62MbCrixfZIk-84" value="" style="edgeStyle=orthogonalEdgeStyle;rounded=0;orthogonalLoop=1;jettySize=auto;html=1;" edge="1" parent="1" source="UNg2huOa62MbCrixfZIk-50" target="UNg2huOa62MbCrixfZIk-82">
          <mxGeometry relative="1" as="geometry" />
        </mxCell>
        <mxCell id="UNg2huOa62MbCrixfZIk-50" value="&lt;font face=&quot;Times New Roman&quot;&gt;Query publication&#39;s&lt;br&gt;Abstract&lt;/font&gt;" style="whiteSpace=wrap;html=1;" vertex="1" parent="1">
          <mxGeometry x="280" y="370" width="120" height="60" as="geometry" />
        </mxCell>
        <mxCell id="UNg2huOa62MbCrixfZIk-58" value="" style="edgeStyle=orthogonalEdgeStyle;rounded=0;orthogonalLoop=1;jettySize=auto;html=1;entryX=0;entryY=0.5;entryDx=0;entryDy=0;" edge="1" parent="1" source="UNg2huOa62MbCrixfZIk-53" target="UNg2huOa62MbCrixfZIk-77">
          <mxGeometry relative="1" as="geometry">
            <mxPoint x="560" y="320" as="targetPoint" />
            <Array as="points">
              <mxPoint x="580" y="280" />
              <mxPoint x="580" y="320" />
            </Array>
          </mxGeometry>
        </mxCell>
        <mxCell id="UNg2huOa62MbCrixfZIk-53" value="&lt;font face=&quot;Times New Roman&quot;&gt;KB PostgreSQL:&lt;br&gt;WoS_Items&lt;br&gt;&lt;/font&gt;" style="shape=datastore;whiteSpace=wrap;html=1;" vertex="1" parent="1">
          <mxGeometry x="440" y="235" width="80" height="90" as="geometry" />
        </mxCell>
        <mxCell id="UNg2huOa62MbCrixfZIk-83" value="" style="edgeStyle=elbowEdgeStyle;rounded=0;orthogonalLoop=1;jettySize=auto;html=1;entryX=0;entryY=0.5;entryDx=0;entryDy=0;" edge="1" parent="1" target="UNg2huOa62MbCrixfZIk-78">
          <mxGeometry relative="1" as="geometry">
            <mxPoint x="520" y="280" as="sourcePoint" />
            <Array as="points">
              <mxPoint x="580" y="270" />
            </Array>
          </mxGeometry>
        </mxCell>
        <mxCell id="UNg2huOa62MbCrixfZIk-69" style="edgeStyle=elbowEdgeStyle;rounded=0;orthogonalLoop=1;jettySize=auto;html=1;startArrow=none;endArrow=none;segment=10;sourcePerimeterSpacing=0;targetPerimeterSpacing=0;exitX=1;exitY=0.5;exitDx=0;exitDy=0;entryX=0;entryY=0.5;entryDx=0;entryDy=0;" edge="1" parent="1" source="UNg2huOa62MbCrixfZIk-47" target="UNg2huOa62MbCrixfZIk-53">
          <mxGeometry relative="1" as="geometry">
            <mxPoint x="385" y="290" as="sourcePoint" />
            <mxPoint x="470" y="210" as="targetPoint" />
            <Array as="points">
              <mxPoint x="420" y="260" />
              <mxPoint x="440" y="270" />
              <mxPoint x="430" y="280" />
            </Array>
          </mxGeometry>
        </mxCell>
        <mxCell id="UNg2huOa62MbCrixfZIk-44" value="&lt;font face=&quot;Times New Roman&quot;&gt;Query publication&#39;s&lt;br&gt;Title&lt;/font&gt;" style="whiteSpace=wrap;html=1;" vertex="1" parent="1">
          <mxGeometry x="280" y="290" width="120" height="60" as="geometry" />
        </mxCell>
        <mxCell id="UNg2huOa62MbCrixfZIk-114" style="edgeStyle=orthogonalEdgeStyle;rounded=0;orthogonalLoop=1;jettySize=auto;html=1;exitX=1;exitY=0.5;exitDx=0;exitDy=0;endArrow=none;endFill=0;" edge="1" parent="1" source="UNg2huOa62MbCrixfZIk-77">
          <mxGeometry relative="1" as="geometry">
            <mxPoint x="740" y="320" as="targetPoint" />
          </mxGeometry>
        </mxCell>
        <mxCell id="UNg2huOa62MbCrixfZIk-77" value="&lt;font face=&quot;Times New Roman&quot;&gt;Export meta data based on title results&lt;/font&gt;" style="html=1;whiteSpace=wrap;" vertex="1" parent="1">
          <mxGeometry x="600" y="295" width="120" height="50" as="geometry" />
        </mxCell>
        <mxCell id="UNg2huOa62MbCrixfZIk-96" style="edgeStyle=orthogonalEdgeStyle;rounded=0;orthogonalLoop=1;jettySize=auto;html=1;exitX=1;exitY=0.5;exitDx=0;exitDy=0;endArrow=classic;endFill=1;entryX=0;entryY=0.5;entryDx=0;entryDy=0;" edge="1" parent="1" source="UNg2huOa62MbCrixfZIk-78" target="UNg2huOa62MbCrixfZIk-102">
          <mxGeometry relative="1" as="geometry">
            <mxPoint x="770" y="320" as="targetPoint" />
            <Array as="points">
              <mxPoint x="750" y="240" />
              <mxPoint x="750" y="240" />
            </Array>
          </mxGeometry>
        </mxCell>
        <mxCell id="UNg2huOa62MbCrixfZIk-78" value="&lt;font face=&quot;Times New Roman&quot;&gt;Export meta data based on keyword results&lt;/font&gt;" style="whiteSpace=wrap;html=1;" vertex="1" parent="1">
          <mxGeometry x="600" y="210" width="120" height="60" as="geometry" />
        </mxCell>
        <mxCell id="UNg2huOa62MbCrixfZIk-87" style="edgeStyle=orthogonalEdgeStyle;rounded=0;orthogonalLoop=1;jettySize=auto;html=1;exitX=0.5;exitY=1;exitDx=0;exitDy=0;entryX=0;entryY=0.5;entryDx=0;entryDy=0;" edge="1" parent="1" source="UNg2huOa62MbCrixfZIk-80" target="UNg2huOa62MbCrixfZIk-86">
          <mxGeometry relative="1" as="geometry">
            <mxPoint x="400" y="540" as="targetPoint" />
            <Array as="points">
              <mxPoint x="660" y="460" />
              <mxPoint x="420" y="460" />
              <mxPoint x="420" y="520" />
            </Array>
          </mxGeometry>
        </mxCell>
        <mxCell id="UNg2huOa62MbCrixfZIk-80" value="&lt;font face=&quot;Times New Roman&quot;&gt;Retrieve publication data based on found abstracts&lt;/font&gt;" style="whiteSpace=wrap;html=1;" vertex="1" parent="1">
          <mxGeometry x="600" y="370" width="120" height="60" as="geometry" />
        </mxCell>
        <mxCell id="UNg2huOa62MbCrixfZIk-89" value="" style="edgeStyle=orthogonalEdgeStyle;rounded=0;orthogonalLoop=1;jettySize=auto;html=1;" edge="1" parent="1" source="UNg2huOa62MbCrixfZIk-82" target="UNg2huOa62MbCrixfZIk-80">
          <mxGeometry relative="1" as="geometry" />
        </mxCell>
        <mxCell id="UNg2huOa62MbCrixfZIk-82" value="&lt;font face=&quot;Times New Roman&quot;&gt;KB PostgreSQL:&lt;br&gt;WoS_Abstracts&lt;br&gt;&lt;/font&gt;" style="shape=datastore;whiteSpace=wrap;html=1;" vertex="1" parent="1">
          <mxGeometry x="440" y="355" width="80" height="90" as="geometry" />
        </mxCell>
        <mxCell id="UNg2huOa62MbCrixfZIk-93" value="" style="edgeStyle=orthogonalEdgeStyle;rounded=0;orthogonalLoop=1;jettySize=auto;html=1;" edge="1" parent="1" source="UNg2huOa62MbCrixfZIk-86" target="UNg2huOa62MbCrixfZIk-92">
          <mxGeometry relative="1" as="geometry" />
        </mxCell>
        <mxCell id="UNg2huOa62MbCrixfZIk-86" value="&lt;font face=&quot;Times New Roman&quot;&gt;KB PostgreSQL:&lt;br&gt;WoS_Items&lt;br&gt;&lt;/font&gt;" style="shape=datastore;whiteSpace=wrap;html=1;" vertex="1" parent="1">
          <mxGeometry x="440" y="475" width="80" height="90" as="geometry" />
        </mxCell>
        <mxCell id="UNg2huOa62MbCrixfZIk-113" style="edgeStyle=orthogonalEdgeStyle;rounded=0;orthogonalLoop=1;jettySize=auto;html=1;exitX=1;exitY=0.5;exitDx=0;exitDy=0;endArrow=none;endFill=0;" edge="1" parent="1" source="UNg2huOa62MbCrixfZIk-92">
          <mxGeometry relative="1" as="geometry">
            <mxPoint x="730" y="240" as="targetPoint" />
            <Array as="points">
              <mxPoint x="740" y="520" />
              <mxPoint x="740" y="240" />
            </Array>
          </mxGeometry>
        </mxCell>
        <mxCell id="UNg2huOa62MbCrixfZIk-92" value="&lt;font face=&quot;Times New Roman&quot;&gt;Export meta data based on abstract results&lt;/font&gt;" style="whiteSpace=wrap;html=1;" vertex="1" parent="1">
          <mxGeometry x="600" y="490" width="120" height="60" as="geometry" />
        </mxCell>
        <mxCell id="UNg2huOa62MbCrixfZIk-105" value="" style="edgeStyle=orthogonalEdgeStyle;rounded=0;orthogonalLoop=1;jettySize=auto;html=1;" edge="1" parent="1" target="UNg2huOa62MbCrixfZIk-104">
          <mxGeometry relative="1" as="geometry">
            <mxPoint x="823" y="430" as="sourcePoint" />
          </mxGeometry>
        </mxCell>
        <mxCell id="UNg2huOa62MbCrixfZIk-108" style="edgeStyle=orthogonalEdgeStyle;rounded=0;orthogonalLoop=1;jettySize=auto;html=1;exitX=0.5;exitY=1;exitDx=0;exitDy=0;" edge="1" parent="1" source="UNg2huOa62MbCrixfZIk-102">
          <mxGeometry relative="1" as="geometry">
            <mxPoint x="823" y="370" as="targetPoint" />
          </mxGeometry>
        </mxCell>
        <mxCell id="UNg2huOa62MbCrixfZIk-102" value="&lt;font face=&quot;Times New Roman&quot;&gt;Merged dataset&lt;br&gt;with duplicates&lt;/font&gt;" style="shape=parallelogram;html=1;strokeWidth=1;perimeter=parallelogramPerimeter;whiteSpace=wrap;rounded=1;arcSize=12;size=0.23;" vertex="1" parent="1">
          <mxGeometry x="753" y="210" width="140" height="60" as="geometry" />
        </mxCell>
        <mxCell id="UNg2huOa62MbCrixfZIk-103" value="&lt;span style=&quot;color: rgb(0, 0, 0); font-family: &amp;quot;Times New Roman&amp;quot;; font-size: 12px; font-style: normal; font-variant-ligatures: normal; font-variant-caps: normal; font-weight: 400; letter-spacing: normal; orphans: 2; text-align: center; text-indent: 0px; text-transform: none; widows: 2; word-spacing: 0px; -webkit-text-stroke-width: 0px; background-color: rgb(251, 251, 251); text-decoration-thickness: initial; text-decoration-style: initial; text-decoration-color: initial; float: none; display: inline !important;&quot;&gt;Keyword&lt;/span&gt;&lt;br style=&quot;border-color: var(--border-color); color: rgb(0, 0, 0); font-family: &amp;quot;Times New Roman&amp;quot;; font-size: 12px; font-style: normal; font-variant-ligatures: normal; font-variant-caps: normal; font-weight: 400; letter-spacing: normal; orphans: 2; text-align: center; text-indent: 0px; text-transform: none; widows: 2; word-spacing: 0px; -webkit-text-stroke-width: 0px; background-color: rgb(251, 251, 251); text-decoration-thickness: initial; text-decoration-style: initial; text-decoration-color: initial;&quot;&gt;&lt;span style=&quot;color: rgb(0, 0, 0); font-family: &amp;quot;Times New Roman&amp;quot;; font-size: 12px; font-style: normal; font-variant-ligatures: normal; font-variant-caps: normal; font-weight: 400; letter-spacing: normal; orphans: 2; text-align: center; text-indent: 0px; text-transform: none; widows: 2; word-spacing: 0px; -webkit-text-stroke-width: 0px; background-color: rgb(251, 251, 251); text-decoration-thickness: initial; text-decoration-style: initial; text-decoration-color: initial; float: none; display: inline !important;&quot;&gt;&quot;computational&lt;br&gt;neuroscience(s)&quot;&lt;/span&gt;" style="strokeWidth=2;html=1;shape=mxgraph.flowchart.decision;whiteSpace=wrap;" vertex="1" parent="1">
          <mxGeometry x="79" y="270" width="170" height="100" as="geometry" />
        </mxCell>
        <mxCell id="UNg2huOa62MbCrixfZIk-110" style="edgeStyle=orthogonalEdgeStyle;rounded=0;orthogonalLoop=1;jettySize=auto;html=1;exitX=0.5;exitY=1;exitDx=0;exitDy=0;entryX=1;entryY=0.5;entryDx=0;entryDy=0;" edge="1" parent="1" source="UNg2huOa62MbCrixfZIk-104" target="UNg2huOa62MbCrixfZIk-109">
          <mxGeometry relative="1" as="geometry" />
        </mxCell>
        <mxCell id="UNg2huOa62MbCrixfZIk-104" value="Retrieve all abstracts based on publication IDs" style="whiteSpace=wrap;html=1;fontFamily=Times New Roman;" vertex="1" parent="1">
          <mxGeometry x="910" y="490" width="120" height="60" as="geometry" />
        </mxCell>
        <mxCell id="UNg2huOa62MbCrixfZIk-116" value="" style="edgeStyle=orthogonalEdgeStyle;rounded=0;orthogonalLoop=1;jettySize=auto;html=1;" edge="1" parent="1" source="UNg2huOa62MbCrixfZIk-109" target="UNg2huOa62MbCrixfZIk-115">
          <mxGeometry relative="1" as="geometry" />
        </mxCell>
        <mxCell id="UNg2huOa62MbCrixfZIk-109" value="&lt;font face=&quot;Times New Roman&quot;&gt;KB PostgreSQL:&lt;br&gt;WoS_Abstracts&lt;br&gt;&lt;/font&gt;" style="shape=datastore;whiteSpace=wrap;html=1;" vertex="1" parent="1">
          <mxGeometry x="440" y="830" width="80" height="90" as="geometry" />
        </mxCell>
        <mxCell id="UNg2huOa62MbCrixfZIk-118" value="" style="edgeStyle=orthogonalEdgeStyle;rounded=0;orthogonalLoop=1;jettySize=auto;html=1;" edge="1" parent="1" source="UNg2huOa62MbCrixfZIk-112" target="UNg2huOa62MbCrixfZIk-117">
          <mxGeometry relative="1" as="geometry" />
        </mxCell>
        <mxCell id="UNg2huOa62MbCrixfZIk-112" value="&lt;font face=&quot;Times New Roman&quot;&gt;&lt;br&gt;&lt;br&gt;Clean dataset and remove duplicates&lt;/font&gt;" style="shape=manualInput;whiteSpace=wrap;html=1;" vertex="1" parent="1">
          <mxGeometry x="760" y="360" width="121.5" height="70" as="geometry" />
        </mxCell>
        <mxCell id="UNg2huOa62MbCrixfZIk-129" value="" style="edgeStyle=orthogonalEdgeStyle;rounded=0;orthogonalLoop=1;jettySize=auto;html=1;" edge="1" parent="1" source="UNg2huOa62MbCrixfZIk-115" target="UNg2huOa62MbCrixfZIk-128">
          <mxGeometry relative="1" as="geometry" />
        </mxCell>
        <mxCell id="UNg2huOa62MbCrixfZIk-139" style="edgeStyle=orthogonalEdgeStyle;rounded=0;orthogonalLoop=1;jettySize=auto;html=1;exitX=0;exitY=0.5;exitDx=0;exitDy=0;" edge="1" parent="1" source="UNg2huOa62MbCrixfZIk-115" target="UNg2huOa62MbCrixfZIk-135">
          <mxGeometry relative="1" as="geometry">
            <Array as="points">
              <mxPoint x="260" y="875" />
              <mxPoint x="260" y="1070" />
              <mxPoint x="340" y="1070" />
            </Array>
          </mxGeometry>
        </mxCell>
        <mxCell id="UNg2huOa62MbCrixfZIk-115" value="&lt;font face=&quot;Times New Roman&quot;&gt;Merge abstracts with publication dataset&lt;/font&gt;" style="whiteSpace=wrap;html=1;" vertex="1" parent="1">
          <mxGeometry x="280" y="845" width="120" height="60" as="geometry" />
        </mxCell>
        <mxCell id="UNg2huOa62MbCrixfZIk-121" style="edgeStyle=orthogonalEdgeStyle;rounded=0;orthogonalLoop=1;jettySize=auto;html=1;exitX=0.5;exitY=1;exitDx=0;exitDy=0;entryX=0.995;entryY=0.587;entryDx=0;entryDy=0;entryPerimeter=0;" edge="1" parent="1" source="UNg2huOa62MbCrixfZIk-117" target="UNg2huOa62MbCrixfZIk-119">
          <mxGeometry relative="1" as="geometry" />
        </mxCell>
        <mxCell id="UNg2huOa62MbCrixfZIk-117" value="&lt;font face=&quot;Times New Roman&quot;&gt;Retrieve full author information&lt;/font&gt;" style="whiteSpace=wrap;html=1;" vertex="1" parent="1">
          <mxGeometry x="761.5" y="490" width="120" height="60" as="geometry" />
        </mxCell>
        <mxCell id="UNg2huOa62MbCrixfZIk-124" value="" style="edgeStyle=orthogonalEdgeStyle;rounded=0;orthogonalLoop=1;jettySize=auto;html=1;" edge="1" parent="1" source="UNg2huOa62MbCrixfZIk-119" target="UNg2huOa62MbCrixfZIk-123">
          <mxGeometry relative="1" as="geometry" />
        </mxCell>
        <mxCell id="UNg2huOa62MbCrixfZIk-119" value="&lt;font face=&quot;Times New Roman&quot;&gt;KB PostgreSQL:&lt;br&gt;WoS_Authors&lt;br&gt;&lt;/font&gt;" style="shape=datastore;whiteSpace=wrap;html=1;" vertex="1" parent="1">
          <mxGeometry x="440" y="590" width="80" height="90" as="geometry" />
        </mxCell>
        <mxCell id="UNg2huOa62MbCrixfZIk-125" style="edgeStyle=orthogonalEdgeStyle;rounded=0;orthogonalLoop=1;jettySize=auto;html=1;exitX=0;exitY=0.5;exitDx=0;exitDy=0;endArrow=none;endFill=0;entryX=1;entryY=0.5;entryDx=0;entryDy=0;" edge="1" parent="1" source="UNg2huOa62MbCrixfZIk-120" target="UNg2huOa62MbCrixfZIk-123">
          <mxGeometry relative="1" as="geometry">
            <mxPoint x="400" y="780" as="targetPoint" />
            <Array as="points">
              <mxPoint x="440" y="775" />
            </Array>
          </mxGeometry>
        </mxCell>
        <mxCell id="UNg2huOa62MbCrixfZIk-120" value="&lt;font face=&quot;Times New Roman&quot;&gt;KB PostgreSQL:&lt;br&gt;WoS_Auth_Aff&lt;br&gt;&lt;/font&gt;" style="shape=datastore;whiteSpace=wrap;html=1;" vertex="1" parent="1">
          <mxGeometry x="440" y="710" width="80" height="90" as="geometry" />
        </mxCell>
        <mxCell id="UNg2huOa62MbCrixfZIk-122" value="" style="endArrow=classic;html=1;rounded=0;entryX=1;entryY=0.5;entryDx=0;entryDy=0;edgeStyle=orthogonalEdgeStyle;exitX=0.5;exitY=1;exitDx=0;exitDy=0;" edge="1" parent="1" source="UNg2huOa62MbCrixfZIk-117" target="UNg2huOa62MbCrixfZIk-120">
          <mxGeometry width="50" height="50" relative="1" as="geometry">
            <mxPoint x="970" y="780" as="sourcePoint" />
            <mxPoint x="970" y="830" as="targetPoint" />
            <Array as="points">
              <mxPoint x="822" y="755" />
            </Array>
          </mxGeometry>
        </mxCell>
        <mxCell id="UNg2huOa62MbCrixfZIk-133" style="edgeStyle=orthogonalEdgeStyle;rounded=0;orthogonalLoop=1;jettySize=auto;html=1;exitX=0;exitY=0.5;exitDx=0;exitDy=0;" edge="1" parent="1" source="UNg2huOa62MbCrixfZIk-123">
          <mxGeometry relative="1" as="geometry">
            <mxPoint x="250" y="775" as="targetPoint" />
          </mxGeometry>
        </mxCell>
        <mxCell id="UNg2huOa62MbCrixfZIk-123" value="Merge author information" style="whiteSpace=wrap;html=1;fontFamily=Times New Roman;" vertex="1" parent="1">
          <mxGeometry x="280" y="745" width="120" height="60" as="geometry" />
        </mxCell>
        <mxCell id="UNg2huOa62MbCrixfZIk-138" value="" style="edgeStyle=orthogonalEdgeStyle;rounded=0;orthogonalLoop=1;jettySize=auto;html=1;" edge="1" parent="1" source="UNg2huOa62MbCrixfZIk-126" target="UNg2huOa62MbCrixfZIk-137">
          <mxGeometry relative="1" as="geometry" />
        </mxCell>
        <mxCell id="UNg2huOa62MbCrixfZIk-126" value="&lt;font face=&quot;Times New Roman&quot;&gt;&lt;br&gt;Clean author names&lt;/font&gt;" style="shape=manualInput;whiteSpace=wrap;html=1;" vertex="1" parent="1">
          <mxGeometry x="127.5" y="735" width="121.5" height="70" as="geometry" />
        </mxCell>
        <mxCell id="UNg2huOa62MbCrixfZIk-134" style="edgeStyle=orthogonalEdgeStyle;rounded=0;orthogonalLoop=1;jettySize=auto;html=1;exitX=1;exitY=0.5;exitDx=0;exitDy=0;" edge="1" parent="1" source="UNg2huOa62MbCrixfZIk-128">
          <mxGeometry relative="1" as="geometry">
            <mxPoint x="430" y="1000" as="targetPoint" />
          </mxGeometry>
        </mxCell>
        <mxCell id="UNg2huOa62MbCrixfZIk-128" value="Retrieve references&#39; meta data based on publication IDs" style="whiteSpace=wrap;html=1;fontFamily=Times New Roman;" vertex="1" parent="1">
          <mxGeometry x="280" y="970" width="120" height="60" as="geometry" />
        </mxCell>
        <mxCell id="UNg2huOa62MbCrixfZIk-143" style="edgeStyle=orthogonalEdgeStyle;rounded=0;orthogonalLoop=1;jettySize=auto;html=1;exitX=1;exitY=0.5;exitDx=0;exitDy=0;entryX=0;entryY=0.5;entryDx=0;entryDy=0;" edge="1" parent="1">
          <mxGeometry relative="1" as="geometry">
            <mxPoint x="520" y="999" as="sourcePoint" />
            <mxPoint x="590" y="999" as="targetPoint" />
          </mxGeometry>
        </mxCell>
        <mxCell id="UNg2huOa62MbCrixfZIk-130" value="&lt;font face=&quot;Times New Roman&quot;&gt;KB PostgreSQL:&lt;br&gt;WoS_Refs&lt;br&gt;&lt;/font&gt;" style="shape=datastore;whiteSpace=wrap;html=1;" vertex="1" parent="1">
          <mxGeometry x="440" y="950" width="80" height="90" as="geometry" />
        </mxCell>
        <mxCell id="UNg2huOa62MbCrixfZIk-135" value="Dataset &lt;br&gt;Publications" style="shape=parallelogram;perimeter=parallelogramPerimeter;whiteSpace=wrap;html=1;fixedSize=1;fontFamily=Times New Roman;" vertex="1" parent="1">
          <mxGeometry x="280" y="1100" width="120" height="60" as="geometry" />
        </mxCell>
        <mxCell id="UNg2huOa62MbCrixfZIk-137" value="&lt;font face=&quot;Times New Roman&quot;&gt;Dataset&lt;br&gt;Authors&lt;br&gt;&lt;/font&gt;" style="shape=parallelogram;perimeter=parallelogramPerimeter;whiteSpace=wrap;html=1;fixedSize=1;" vertex="1" parent="1">
          <mxGeometry x="129" y="1100" width="120" height="60" as="geometry" />
        </mxCell>
        <mxCell id="UNg2huOa62MbCrixfZIk-145" style="edgeStyle=orthogonalEdgeStyle;rounded=0;orthogonalLoop=1;jettySize=auto;html=1;exitX=0.5;exitY=1;exitDx=0;exitDy=0;entryX=0.58;entryY=0.007;entryDx=0;entryDy=0;entryPerimeter=0;" edge="1" parent="1" source="UNg2huOa62MbCrixfZIk-142" target="UNg2huOa62MbCrixfZIk-144">
          <mxGeometry relative="1" as="geometry" />
        </mxCell>
        <mxCell id="UNg2huOa62MbCrixfZIk-142" value="&lt;font face=&quot;Times New Roman&quot;&gt;Clean references&lt;/font&gt;" style="shape=manualInput;whiteSpace=wrap;html=1;" vertex="1" parent="1">
          <mxGeometry x="590" y="960" width="100" height="70" as="geometry" />
        </mxCell>
        <mxCell id="UNg2huOa62MbCrixfZIk-144" value="&lt;font face=&quot;Times New Roman&quot;&gt;Dataset&lt;br&gt;References&lt;/font&gt;" style="shape=parallelogram;perimeter=parallelogramPerimeter;whiteSpace=wrap;html=1;fixedSize=1;" vertex="1" parent="1">
          <mxGeometry x="570" y="1100" width="120" height="60" as="geometry" />
        </mxCell>
      </root>
    </mxGraphModel>
  </diagram>
</mxfile>
